<?xml version="1.0" encoding="UTF-8" standalone="no"?>
<!DOCTYPE svg PUBLIC "-//W3C//DTD SVG 1.1//EN"
 "http://www.w3.org/Graphics/SVG/1.1/DTD/svg11.dtd">
<!-- Generated by graphviz version 2.40.1 (20161225.0304)
 -->
<!-- Title: dependencies Pages: 1 -->
<svg width="2313pt" height="284pt"
 viewBox="0.00 0.00 2313.00 284.00" xmlns="http://www.w3.org/2000/svg" xmlns:xlink="http://www.w3.org/1999/xlink">
<g id="graph0" class="graph" transform="scale(1 1) rotate(0) translate(4 280)">
<title>dependencies</title>
<polygon fill="#ffffff" stroke="transparent" points="-4,4 -4,-280 2309,-280 2309,4 -4,4"/>
<text text-anchor="start" x="1131.5091" y="-42.4" font-family="sans-serif" font-weight="bold" font-size="14.00" fill="#000000">Legend</text>
<polygon fill="#ffffb3" stroke="transparent" points="918.5,-10 918.5,-30 938.5,-30 938.5,-10 918.5,-10"/>
<text text-anchor="start" x="942.129" y="-15.4" font-family="sans-serif" font-size="14.00" fill="#000000"> &#160;Declarations</text>
<polygon fill="#8dd3c7" stroke="transparent" points="1031.5,-10 1031.5,-30 1051.5,-30 1051.5,-10 1031.5,-10"/>
<text text-anchor="start" x="1055.2251" y="-15.4" font-family="sans-serif" font-size="14.00" fill="#000000"> &#160;Module</text>
<polygon fill="#80b1d3" stroke="transparent" points="1117.5,-10 1117.5,-30 1137.5,-30 1137.5,-10 1117.5,-10"/>
<text text-anchor="start" x="1141.2812" y="-15.4" font-family="sans-serif" font-size="14.00" fill="#000000"> &#160;Bootstrap</text>
<polygon fill="#fdb462" stroke="transparent" points="1214.5,-10 1214.5,-30 1234.5,-30 1234.5,-10 1214.5,-10"/>
<text text-anchor="start" x="1238.1732" y="-15.4" font-family="sans-serif" font-size="14.00" fill="#000000"> &#160;Providers</text>
<polygon fill="#fb8072" stroke="transparent" points="1310.5,-10 1310.5,-30 1330.5,-30 1330.5,-10 1310.5,-10"/>
<text text-anchor="start" x="1334.2258" y="-15.4" font-family="sans-serif" font-size="14.00" fill="#000000"> &#160;Exports</text>
<g id="clust1" class="cluster">
<title>cluster_AppModule</title>
<polygon fill="none" stroke="#000000" stroke-dasharray="1,5" points="8,-70 8,-268 2297,-268 2297,-70 8,-70"/>
</g>
<g id="clust2" class="cluster">
<title>cluster_AppModule_declarations</title>
<polygon fill="none" stroke="#000000" points="824,-78 824,-130 2289,-130 2289,-78 824,-78"/>
</g>
<g id="clust12" class="cluster">
<title>cluster_AppModule_imports</title>
<polygon fill="none" stroke="#000000" points="674,-78 674,-130 816,-130 816,-78 674,-78"/>
</g>
<g id="clust14" class="cluster">
<title>cluster_AppModule_bootstrap</title>
<polygon fill="none" stroke="#000000" points="988,-208 988,-260 1418,-260 1418,-208 988,-208"/>
</g>
<g id="clust15" class="cluster">
<title>cluster_AppModule_providers</title>
<polygon fill="none" stroke="#000000" points="16,-78 16,-130 666,-130 666,-78 16,-78"/>
</g>
<!-- AddOrUpdateHabitsComponent -->
<g id="node1" class="node">
<title>AddOrUpdateHabitsComponent</title>
<polygon fill="#ffffb3" stroke="#000000" points="2280.6797,-122 2083.3203,-122 2083.3203,-86 2280.6797,-86 2280.6797,-122"/>
<text text-anchor="middle" x="2182" y="-99.8" font-family="Times,serif" font-size="14.00" fill="#000000">AddOrUpdateHabitsComponent</text>
</g>
<!-- AppModule -->
<g id="node10" class="node">
<title>AppModule</title>
<polygon fill="#8dd3c7" stroke="#000000" points="1269.6571,-187 1266.6571,-191 1245.6571,-191 1242.6571,-187 1186.3429,-187 1186.3429,-151 1269.6571,-151 1269.6571,-187"/>
<text text-anchor="middle" x="1228" y="-164.8" font-family="Times,serif" font-size="14.00" fill="#000000">AppModule</text>
</g>
<!-- AddOrUpdateHabitsComponent&#45;&gt;AppModule -->
<g id="edge1" class="edge">
<title>AddOrUpdateHabitsComponent&#45;&gt;AppModule</title>
<path fill="none" stroke="#000000" d="M2182,-122.2921C2182,-144.2057 2182,-178 2182,-178 2182,-178 1279.9139,-178 1279.9139,-178"/>
<polygon fill="#000000" stroke="#000000" points="1279.9139,-174.5001 1269.9139,-178 1279.9138,-181.5001 1279.9139,-174.5001"/>
</g>
<!-- AppComponent -->
<g id="node2" class="node">
<title>AppComponent</title>
<polygon fill="#ffffb3" stroke="#000000" points="2065.9399,-122 1960.0601,-122 1960.0601,-86 2065.9399,-86 2065.9399,-122"/>
<text text-anchor="middle" x="2013" y="-99.8" font-family="Times,serif" font-size="14.00" fill="#000000">AppComponent</text>
</g>
<!-- AppComponent&#45;&gt;AppModule -->
<g id="edge2" class="edge">
<title>AppComponent&#45;&gt;AppModule</title>
<path fill="none" stroke="#000000" d="M2013,-122.0267C2013,-142.7672 2013,-174 2013,-174 2013,-174 1279.9275,-174 1279.9275,-174"/>
<polygon fill="#000000" stroke="#000000" points="1279.9275,-170.5001 1269.9275,-174 1279.9274,-177.5001 1279.9275,-170.5001"/>
</g>
<!-- Dialogaddhabits -->
<g id="node3" class="node">
<title>Dialogaddhabits</title>
<polygon fill="#ffffb3" stroke="#000000" points="1941.7577,-122 1834.2423,-122 1834.2423,-86 1941.7577,-86 1941.7577,-122"/>
<text text-anchor="middle" x="1888" y="-99.8" font-family="Times,serif" font-size="14.00" fill="#000000">Dialogaddhabits</text>
</g>
<!-- Dialogaddhabits&#45;&gt;AppModule -->
<g id="edge3" class="edge">
<title>Dialogaddhabits&#45;&gt;AppModule</title>
<path fill="none" stroke="#000000" d="M1888,-122.1061C1888,-141.3391 1888,-169 1888,-169 1888,-169 1279.7867,-169 1279.7867,-169"/>
<polygon fill="#000000" stroke="#000000" points="1279.7867,-165.5001 1269.7867,-169 1279.7866,-172.5001 1279.7867,-165.5001"/>
</g>
<!-- Dialogaddprogresshabits -->
<g id="node4" class="node">
<title>Dialogaddprogresshabits</title>
<polygon fill="#ffffb3" stroke="#000000" points="1816.6825,-122 1661.3175,-122 1661.3175,-86 1816.6825,-86 1816.6825,-122"/>
<text text-anchor="middle" x="1739" y="-99.8" font-family="Times,serif" font-size="14.00" fill="#000000">Dialogaddprogresshabits</text>
</g>
<!-- Dialogaddprogresshabits&#45;&gt;AppModule -->
<g id="edge4" class="edge">
<title>Dialogaddprogresshabits&#45;&gt;AppModule</title>
<path fill="none" stroke="#000000" d="M1739,-122.302C1739,-140.2699 1739,-165 1739,-165 1739,-165 1279.8173,-165 1279.8173,-165"/>
<polygon fill="#000000" stroke="#000000" points="1279.8173,-161.5001 1269.8173,-165 1279.8172,-168.5001 1279.8173,-161.5001"/>
</g>
<!-- GridCategoryComponent -->
<g id="node5" class="node">
<title>GridCategoryComponent</title>
<polygon fill="#ffffb3" stroke="#000000" points="1643.3075,-122 1484.6925,-122 1484.6925,-86 1643.3075,-86 1643.3075,-122"/>
<text text-anchor="middle" x="1564" y="-99.8" font-family="Times,serif" font-size="14.00" fill="#000000">GridCategoryComponent</text>
</g>
<!-- GridCategoryComponent&#45;&gt;AppModule -->
<g id="edge5" class="edge">
<title>GridCategoryComponent&#45;&gt;AppModule</title>
<path fill="none" stroke="#000000" d="M1564,-122.027C1564,-138.3976 1564,-160 1564,-160 1564,-160 1279.8753,-160 1279.8753,-160"/>
<polygon fill="#000000" stroke="#000000" points="1279.8753,-156.5001 1269.8753,-160 1279.8752,-163.5001 1279.8753,-156.5001"/>
</g>
<!-- GridHabitsComponent -->
<g id="node6" class="node">
<title>GridHabitsComponent</title>
<polygon fill="#ffffb3" stroke="#000000" points="1466.5379,-122 1323.4621,-122 1323.4621,-86 1466.5379,-86 1466.5379,-122"/>
<text text-anchor="middle" x="1395" y="-99.8" font-family="Times,serif" font-size="14.00" fill="#000000">GridHabitsComponent</text>
</g>
<!-- GridHabitsComponent&#45;&gt;AppModule -->
<g id="edge6" class="edge">
<title>GridHabitsComponent&#45;&gt;AppModule</title>
<path fill="none" stroke="#000000" d="M1366.8505,-122.1871C1366.8505,-137.1824 1366.8505,-156 1366.8505,-156 1366.8505,-156 1279.6597,-156 1279.6597,-156"/>
<polygon fill="#000000" stroke="#000000" points="1279.6597,-152.5001 1269.6597,-156 1279.6597,-159.5001 1279.6597,-152.5001"/>
</g>
<!-- GridProgressComponent -->
<g id="node7" class="node">
<title>GridProgressComponent</title>
<polygon fill="#ffffb3" stroke="#000000" points="1305.6979,-122 1150.3021,-122 1150.3021,-86 1305.6979,-86 1305.6979,-122"/>
<text text-anchor="middle" x="1228" y="-99.8" font-family="Times,serif" font-size="14.00" fill="#000000">GridProgressComponent</text>
</g>
<!-- GridProgressComponent&#45;&gt;AppModule -->
<g id="edge7" class="edge">
<title>GridProgressComponent&#45;&gt;AppModule</title>
<path fill="none" stroke="#000000" d="M1228,-122.1061C1228,-122.1061 1228,-140.991 1228,-140.991"/>
<polygon fill="#000000" stroke="#000000" points="1224.5001,-140.9909 1228,-150.991 1231.5001,-140.991 1224.5001,-140.9909"/>
</g>
<!-- HabitsProgressComponent -->
<g id="node8" class="node">
<title>HabitsProgressComponent</title>
<polygon fill="#ffffb3" stroke="#000000" points="1132.087,-122 965.913,-122 965.913,-86 1132.087,-86 1132.087,-122"/>
<text text-anchor="middle" x="1049" y="-99.8" font-family="Times,serif" font-size="14.00" fill="#000000">HabitsProgressComponent</text>
</g>
<!-- HabitsProgressComponent&#45;&gt;AppModule -->
<g id="edge8" class="edge">
<title>HabitsProgressComponent&#45;&gt;AppModule</title>
<path fill="none" stroke="#000000" d="M1063.8512,-122.1871C1063.8512,-137.1824 1063.8512,-156 1063.8512,-156 1063.8512,-156 1176.1536,-156 1176.1536,-156"/>
<polygon fill="#000000" stroke="#000000" points="1176.1536,-159.5001 1186.1536,-156 1176.1536,-152.5001 1176.1536,-159.5001"/>
</g>
<!-- HomeComponent -->
<g id="node9" class="node">
<title>HomeComponent</title>
<polygon fill="#ffffb3" stroke="#000000" points="947.5451,-122 832.4549,-122 832.4549,-86 947.5451,-86 947.5451,-122"/>
<text text-anchor="middle" x="890" y="-99.8" font-family="Times,serif" font-size="14.00" fill="#000000">HomeComponent</text>
</g>
<!-- HomeComponent&#45;&gt;AppModule -->
<g id="edge9" class="edge">
<title>HomeComponent&#45;&gt;AppModule</title>
<path fill="none" stroke="#000000" d="M890,-122.027C890,-138.3976 890,-160 890,-160 890,-160 1176.2156,-160 1176.2156,-160"/>
<polygon fill="#000000" stroke="#000000" points="1176.2156,-163.5001 1186.2156,-160 1176.2155,-156.5001 1176.2156,-163.5001"/>
</g>
<!-- AppComponent  -->
<g id="node12" class="node">
<title>AppComponent </title>
<polygon fill="#80b1d3" stroke="#000000" points="1410.439,-252 1301.561,-252 1301.561,-216 1410.439,-216 1410.439,-252"/>
<text text-anchor="middle" x="1356" y="-229.8" font-family="Times,serif" font-size="14.00" fill="#000000">AppComponent </text>
</g>
<!-- AppModule&#45;&gt;AppComponent  -->
<g id="edge11" class="edge">
<title>AppModule&#45;&gt;AppComponent </title>
<path fill="none" stroke="#000000" stroke-dasharray="1,5" d="M1269.6888,-183C1291.7868,-183 1314.4152,-183 1314.4152,-183 1314.4152,-183 1314.4152,-205.8757 1314.4152,-205.8757"/>
<polygon fill="#000000" stroke="#000000" points="1310.9152,-205.8757 1314.4152,-215.8757 1317.9152,-205.8757 1310.9152,-205.8757"/>
</g>
<!-- Dialogaddhabits  -->
<g id="node13" class="node">
<title>Dialogaddhabits </title>
<polygon fill="#80b1d3" stroke="#000000" points="1283.7577,-252 1172.2423,-252 1172.2423,-216 1283.7577,-216 1283.7577,-252"/>
<text text-anchor="middle" x="1228" y="-229.8" font-family="Times,serif" font-size="14.00" fill="#000000">Dialogaddhabits </text>
</g>
<!-- AppModule&#45;&gt;Dialogaddhabits  -->
<g id="edge12" class="edge">
<title>AppModule&#45;&gt;Dialogaddhabits </title>
<path fill="none" stroke="#000000" stroke-dasharray="1,5" d="M1228,-187.1061C1228,-187.1061 1228,-205.991 1228,-205.991"/>
<polygon fill="#000000" stroke="#000000" points="1224.5001,-205.9909 1228,-215.991 1231.5001,-205.991 1224.5001,-205.9909"/>
</g>
<!-- Dialogaddprogresshabits  -->
<g id="node14" class="node">
<title>Dialogaddprogresshabits </title>
<polygon fill="#80b1d3" stroke="#000000" points="1154.1827,-252 995.8173,-252 995.8173,-216 1154.1827,-216 1154.1827,-252"/>
<text text-anchor="middle" x="1075" y="-229.8" font-family="Times,serif" font-size="14.00" fill="#000000">Dialogaddprogresshabits </text>
</g>
<!-- AppModule&#45;&gt;Dialogaddprogresshabits  -->
<g id="edge13" class="edge">
<title>AppModule&#45;&gt;Dialogaddprogresshabits </title>
<path fill="none" stroke="#000000" stroke-dasharray="1,5" d="M1186.1363,-183C1163.9456,-183 1141.2223,-183 1141.2223,-183 1141.2223,-183 1141.2223,-205.8757 1141.2223,-205.8757"/>
<polygon fill="#000000" stroke="#000000" points="1137.7224,-205.8757 1141.2223,-215.8757 1144.7224,-205.8757 1137.7224,-205.8757"/>
</g>
<!-- MyMaterialModule -->
<g id="node11" class="node">
<title>MyMaterialModule</title>
<polygon fill="#8dd3c7" stroke="#000000" points="808.4159,-122 805.4159,-126 784.4159,-126 781.4159,-122 681.5841,-122 681.5841,-86 808.4159,-86 808.4159,-122"/>
<text text-anchor="middle" x="745" y="-99.8" font-family="Times,serif" font-size="14.00" fill="#000000">MyMaterialModule</text>
</g>
<!-- MyMaterialModule&#45;&gt;AppModule -->
<g id="edge10" class="edge">
<title>MyMaterialModule&#45;&gt;AppModule</title>
<path fill="none" stroke="#000000" d="M745,-122.302C745,-140.2699 745,-165 745,-165 745,-165 1175.9819,-165 1175.9819,-165"/>
<polygon fill="#000000" stroke="#000000" points="1175.9819,-168.5001 1185.9819,-165 1175.9818,-161.5001 1175.9819,-168.5001"/>
</g>
<!-- HabitsCategoryService -->
<g id="node15" class="node">
<title>HabitsCategoryService</title>
<ellipse fill="#fdb462" stroke="#000000" cx="557" cy="-104" rx="100.6978" ry="18"/>
<text text-anchor="middle" x="557" y="-99.8" font-family="Times,serif" font-size="14.00" fill="#000000">HabitsCategoryService</text>
</g>
<!-- HabitsCategoryService&#45;&gt;AppModule -->
<g id="edge14" class="edge">
<title>HabitsCategoryService&#45;&gt;AppModule</title>
<path fill="none" stroke="#000000" d="M557,-122.1061C557,-141.3391 557,-169 557,-169 557,-169 1176.2795,-169 1176.2795,-169"/>
<polygon fill="#000000" stroke="#000000" points="1176.2795,-172.5001 1186.2795,-169 1176.2794,-165.5001 1176.2795,-172.5001"/>
</g>
<!-- HabitsProgressService -->
<g id="node16" class="node">
<title>HabitsProgressService</title>
<ellipse fill="#fdb462" stroke="#000000" cx="340" cy="-104" rx="98.4082" ry="18"/>
<text text-anchor="middle" x="340" y="-99.8" font-family="Times,serif" font-size="14.00" fill="#000000">HabitsProgressService</text>
</g>
<!-- HabitsProgressService&#45;&gt;AppModule -->
<g id="edge15" class="edge">
<title>HabitsProgressService&#45;&gt;AppModule</title>
<path fill="none" stroke="#000000" d="M340,-122.0267C340,-142.7672 340,-174 340,-174 340,-174 1176.0646,-174 1176.0646,-174"/>
<polygon fill="#000000" stroke="#000000" points="1176.0646,-177.5001 1186.0646,-174 1176.0646,-170.5001 1176.0646,-177.5001"/>
</g>
<!-- HabitsWorkoutService -->
<g id="node17" class="node">
<title>HabitsWorkoutService</title>
<ellipse fill="#fdb462" stroke="#000000" cx="124" cy="-104" rx="99.5578" ry="18"/>
<text text-anchor="middle" x="124" y="-99.8" font-family="Times,serif" font-size="14.00" fill="#000000">HabitsWorkoutService</text>
</g>
<!-- HabitsWorkoutService&#45;&gt;AppModule -->
<g id="edge16" class="edge">
<title>HabitsWorkoutService&#45;&gt;AppModule</title>
<path fill="none" stroke="#000000" d="M124,-122.2921C124,-144.2057 124,-178 124,-178 124,-178 1176.07,-178 1176.07,-178"/>
<polygon fill="#000000" stroke="#000000" points="1176.07,-181.5001 1186.07,-178 1176.07,-174.5001 1176.07,-181.5001"/>
</g>
</g>
</svg>
